<svg width="32" height="32" viewBox="0 0 32 32" fill="none" xmlns="http://www.w3.org/2000/svg">
<path d="M25.3327 5.33337H6.66602C5.60515 5.33337 4.58773 5.7548 3.83759 6.50495C3.08744 7.25509 2.66602 8.27251 2.66602 9.33337V22.6667C2.66602 23.7276 3.08744 24.745 3.83759 25.4951C4.58773 26.2453 5.60515 26.6667 6.66602 26.6667H25.3327C26.3935 26.6667 27.411 26.2453 28.1611 25.4951C28.9113 24.745 29.3327 23.7276 29.3327 22.6667V9.33337C29.3327 8.27251 28.9113 7.25509 28.1611 6.50495C27.411 5.7548 26.3935 5.33337 25.3327 5.33337ZM24.4393 8.00004L15.9993 14.3334L7.55935 8.00004H24.4393ZM25.3327 24H6.66602C6.31239 24 5.97326 23.8596 5.72321 23.6095C5.47316 23.3595 5.33268 23.0203 5.33268 22.6667V9.66671L15.1993 17.0667C15.4301 17.2398 15.7109 17.3334 15.9993 17.3334C16.2878 17.3334 16.5686 17.2398 16.7993 17.0667L26.666 9.66671V22.6667C26.666 23.0203 26.5255 23.3595 26.2755 23.6095C26.0254 23.8596 25.6863 24 25.3327 24Z" fill="#4B5563"/>
</svg>
