<svg width="300" height="245" viewBox="0 0 300 245" fill="none" xmlns="http://www.w3.org/2000/svg">
<g opacity="0.4" clip-path="url(#clip0_342_1067)">
<path fill-rule="evenodd" clip-rule="evenodd" d="M1.3147 205.91C46.0509 184.739 68.4187 159.862 68.4187 131.281C49.3508 129.164 33.5833 121.666 21.1158 108.786C8.64841 95.907 2.41476 80.999 2.41476 64.0618C2.41476 46.0661 8.46506 30.8934 20.5658 18.5434C32.6666 6.19334 47.884 0.0184326 66.2185 0.0184326C86.7532 0.0184326 104.537 8.04584 119.572 24.1009C134.606 40.1559 142.123 59.651 142.123 82.5868C142.123 151.394 102.154 205.204 22.2159 244.018L1.3147 205.91ZM159.191 205.91C204.294 184.739 226.845 159.862 226.845 131.281C207.41 129.164 191.459 121.666 178.992 108.786C166.524 95.907 160.291 80.999 160.291 64.0618C160.291 46.0661 166.433 30.8934 178.717 18.5434C191.001 6.19334 206.31 0.0184326 224.645 0.0184326C245.179 0.0184326 262.872 8.04584 277.723 24.1009C292.574 40.1559 299.999 59.651 299.999 82.5868C299.999 151.394 260.214 205.204 180.642 244.018L159.191 205.91Z" fill="white"/>
</g>
<defs>
<clipPath id="clip0_342_1067">
<rect width="300" height="244" fill="white" transform="matrix(-1 0 0 -1 299.999 244.018)"/>
</clipPath>
</defs>
</svg>
