<svg width="30" height="30" viewBox="0 0 30 30" fill="none" xmlns="http://www.w3.org/2000/svg">
<g clip-path="url(#clip0_198_696)">
<path d="M5.76575 1.98659L5.76461 1.98704C4.9128 2.31544 4.2043 2.75508 3.48347 3.4759C2.76568 4.1937 2.32949 4.90757 1.99344 5.76004C1.67313 6.58719 1.44309 7.54732 1.37816 9.00287L1.37815 9.00299C1.31079 10.5073 1.29378 10.9827 1.29378 14.859C1.29378 18.735 1.31079 19.2106 1.37815 20.7206L5.76575 1.98659ZM5.76575 1.98659C6.59347 1.66585 7.55398 1.43556 9.00477 1.37059L5.76575 1.98659ZM14.8665 2.42921C18.6879 2.42921 19.1486 2.44624 20.6731 2.51501L14.8665 2.42921ZM14.8665 2.42921C11.0486 2.42921 10.5848 2.44049 9.05849 2.51508M14.8665 2.42921L9.05849 2.51508M3.05897 6.17432C2.83172 6.75243 2.58283 7.58442 2.51692 9.0578L3.05897 6.17432ZM3.05897 6.17432C3.35431 5.41701 3.71395 4.85589 4.28587 4.28397C4.85537 3.71447 5.41708 3.3466 6.1817 3.05496L3.05897 6.17432ZM9.05849 2.51508C7.58153 2.58127 6.75218 2.83705 6.18209 3.05481L9.05849 2.51508ZM14.8665 1.28621C10.9905 1.28621 10.5149 1.30322 9.00488 1.37058L14.8665 1.28621ZM14.8665 1.28621C18.7412 1.28621 19.2189 1.3032 20.7353 1.36498C22.1901 1.42999 23.1498 1.65998 23.9767 1.98018C24.8292 2.31623 25.5431 2.75243 26.2609 3.47023C26.9817 4.19098 27.4213 4.89942 27.7497 5.75111M14.8665 1.28621L28.418 5.49375M20.7339 28.353C19.2238 28.4204 18.754 28.4374 14.8722 28.4374C10.9904 28.4374 10.5205 28.4204 9.01044 28.353C7.55476 28.288 6.59459 28.058 5.76739 27.7376C4.91502 27.4016 4.2012 26.9654 3.48347 26.2477C2.76272 25.5269 2.3231 24.8185 1.9947 23.9668L20.7659 29.0684M20.7339 28.353L20.7659 29.0684M20.7339 28.353C20.7339 28.353 20.7339 28.353 20.7338 28.353L20.7659 29.0684M20.7339 28.353C22.1844 28.288 23.1455 28.0578 23.98 27.7364M20.7659 29.0684C22.2861 29.0004 23.3241 28.7564 24.2374 28.4047M23.98 27.7364C23.9799 27.7365 23.9799 27.7365 23.9798 27.7365L24.2374 28.4047M23.98 27.7364L24.2374 28.4047M23.98 27.7364C24.8317 27.408 25.5402 26.9684 26.2609 26.2477C26.9786 25.53 27.4148 24.8161 27.7508 23.9638C28.0712 23.1366 28.3013 22.1764 28.3662 20.7207C28.4336 19.2106 28.4506 18.7408 28.4506 14.859C28.4506 10.9771 28.4336 10.5073 28.3662 8.9972M24.2374 28.4047L29.0817 8.96528M28.3662 8.9972L29.0817 8.96528M28.3662 8.9972C28.3662 8.99724 28.3662 8.99728 28.3662 8.99732L29.0817 8.96528M28.3662 8.9972C28.3013 7.54673 28.071 6.5856 27.7497 5.75111M29.0817 8.96528C29.0136 7.44507 28.7697 6.40701 28.418 5.49375M27.7497 5.75111C27.7497 5.7512 27.7497 5.75128 27.7498 5.75137L28.418 5.49375M27.7497 5.75111L28.418 5.49375M23.557 3.05714C22.9789 2.82988 22.1469 2.58094 20.6733 2.51503L2.51692 20.6714C2.58304 22.1495 2.839 22.9792 3.05685 23.5494C3.34849 24.3141 3.71637 24.8758 4.28587 25.4453C4.8578 26.0172 5.41894 26.3769 6.17628 26.6722C6.75442 26.8995 7.58647 27.1483 9.05998 27.2142C10.5844 27.283 11.0451 27.3 14.8665 27.3C18.6879 27.3 19.1486 27.283 20.6731 27.2142C22.1513 27.1481 22.981 26.8922 23.5513 26.6743C24.316 26.3826 24.8777 26.0148 25.4472 25.4453C26.0191 24.8733 26.3787 24.3122 26.6741 23.5549C26.9013 22.9767 27.1502 22.1447 27.2161 20.6712C27.2849 19.1467 27.3019 18.686 27.3019 14.8646C27.3019 11.0432 27.2849 10.5825 27.2161 9.05809C27.15 7.58019 26.8942 6.75047 26.6763 6.18019C26.3847 5.41538 26.0168 4.85357 25.4472 4.28397C24.8753 3.7121 24.3142 3.35247 23.557 3.05714ZM2.43111 14.8646C2.43111 18.686 2.44814 19.1467 2.51691 20.6712V9.05809C2.44814 10.5825 2.43111 11.0432 2.43111 14.8646ZM1.9946 23.9665C1.6733 23.1321 1.44311 22.171 1.37816 20.7207L1.9946 23.9665ZM8.2425 14.8591C8.2425 11.1991 11.2115 8.23507 14.8665 8.23507C18.5211 8.23507 21.4905 11.2045 21.4905 14.8591C21.4905 18.5137 18.5211 21.4831 14.8665 21.4831C11.2115 21.4831 8.2425 18.519 8.2425 14.8591ZM9.3855 14.8591C9.3855 17.8866 11.839 20.3401 14.8665 20.3401C17.894 20.3401 20.3475 17.8866 20.3475 14.8591C20.3475 11.8315 17.894 9.37807 14.8665 9.37807C11.839 9.37807 9.3855 11.8315 9.3855 14.8591ZM23.4929 7.22973C23.4929 7.78032 23.0465 8.22666 22.496 8.22666C21.9454 8.22666 21.499 7.78032 21.499 7.22973C21.499 6.67914 21.9454 6.2328 22.496 6.2328C23.0465 6.2328 23.4929 6.67914 23.4929 7.22973Z" fill="white" stroke="white" stroke-width="1.43229"/>
</g>
<defs>
<clipPath id="clip0_198_696">
<rect width="28.6458" height="28.6458" fill="white" transform="translate(0.572754 0.565186)"/>
</clipPath>
</defs>
</svg>
